<svg width="130" height="56" viewBox="0 0 748 441" fill="none" xmlns="http://www.w3.org/2000/svg">
<path d="M323.3 29.9006L273 59.9006V119.701V179.401L323.5 209.601L373.9 239.701L420.2 212.101C445.7 196.901 468.2 183.401 470.3 182.101L474 179.701V119.401L473.9 59.2006L424.4 29.7006C397.2 13.5006 374.6 0.100558 374.2 0.000557952C373.8 -0.099442 350.9 13.3006 323.3 29.9006ZM417.5 38.7006C439.2 51.6006 457 62.5006 457 62.8006C457 63.2006 450.4 67.4006 442.4 72.2006C429.5 79.9006 427.5 80.8006 425.6 79.8006C424.5 79.1006 412.9 72.2006 400 64.4006L376.5 50.2006L376.2 32.4006C376 20.6006 376.3 14.6006 377 14.9006C377.5 15.0006 395.7 25.8006 417.5 38.7006ZM370 32.9006L369.9 50.2006L344.6 65.3006L319.4 80.4006L305.5 72.1006C297.8 67.6006 291.4 63.5006 291.3 63.0006C291.1 62.3006 367.6 15.8006 369.3 15.7006C369.7 15.7006 370 23.5006 370 32.9006ZM397.5 70.2006C410.4 77.9006 420.9 84.4006 420.9 84.7006C421 85.6006 374.1 112.901 373.2 112.501C368.7 110.701 326.1 84.2006 326.7 83.6006C328.3 82.1006 372.5 55.8006 373.2 56.0006C373.6 56.1006 384.5 62.5006 397.5 70.2006ZM299.4 81.7006L312 89.2006V121.801V154.501L298.5 162.501C291.1 166.901 285 170.201 285 169.901C285 168.001 285 75.1006 285 74.4006C285 73.2006 285.4 73.4006 299.4 81.7006ZM463 122.601V171.601L448.5 162.901L434 154.301L434.2 122.301L434.5 90.2006L448 82.0006C455.4 77.5006 461.8 73.7006 462.3 73.7006C462.7 73.7006 463 95.7006 463 122.601ZM360.8 118.501L368 122.901V153.701V184.401L343 169.501L318 154.601V123.701V92.8006L335.8 103.401C345.5 109.201 356.8 116.001 360.8 118.501ZM428 124.101V154.601L404.6 168.601C391.7 176.401 380.7 182.701 380.1 182.701C379.3 182.701 379 173.801 379 152.901V123.201L403.3 108.501C416.6 100.501 427.6 93.9006 427.8 93.8006C427.9 93.7006 428 107.401 428 124.101ZM341.9 176.301L368 191.901V207.301C368 215.901 367.7 222.601 367.3 222.401C364.7 221.001 295.8 179.901 292.7 178.001L288.8 175.601L301.2 168.201C307.9 164.101 314 160.801 314.6 160.701C315.3 160.701 327.5 167.701 341.9 176.301ZM445.2 168.301C452.3 172.501 457.8 176.301 457.3 176.701C455.9 177.801 382.2 221.701 380.5 222.301C379.1 222.901 379 221.101 379.2 207.101L379.5 191.201L404.9 175.901C418.9 167.601 430.7 160.701 431.3 160.701C431.8 160.701 438 164.101 445.2 168.301Z" fill="white"/>
<path d="M47.875 328.666V334.626C47.875 339.99 47.6267 343.963 47.13 346.546C46.6333 349.029 45.5407 351.463 43.852 353.847C47.428 356.926 49.9113 360.453 51.302 364.426C52.792 368.3 53.537 374.359 53.537 382.604C53.537 391.047 53.239 396.213 52.643 398.1C52.1463 399.987 51.5503 401.775 50.855 403.464C50.1597 405.053 49.3153 406.295 48.322 407.189C47.428 407.984 46.236 408.927 44.746 410.02C43.256 411.013 41.5673 411.758 39.68 412.255C35.1107 413.447 29.995 414.043 24.333 414.043L0.94 412.851V305.571L21.353 303.932C30.293 303.932 36.5013 305.223 39.978 307.806C41.3687 308.799 42.4613 309.693 43.256 310.488C44.15 311.283 44.895 312.524 45.491 314.213C46.087 315.802 46.534 317.143 46.832 318.236C47.5273 320.223 47.875 323.699 47.875 328.666ZM21.204 349.228C27.164 349.228 30.889 348.384 32.379 346.695C33.869 345.006 34.614 340.884 34.614 334.328C34.614 327.772 33.7697 323.252 32.081 320.769C30.4917 318.186 26.866 316.895 21.204 316.895H14.35L15.393 320.024V346.248L14.052 349.228H21.204ZM24.184 402.123C31.2367 402.123 35.7067 400.832 37.594 398.249C39.5807 395.567 40.574 391.544 40.574 386.18C40.574 380.717 40.425 376.793 40.127 374.409C39.829 371.926 39.1833 369.492 38.19 367.108C36.104 362.241 31.4353 359.807 24.184 359.807H13.903L15.244 362.936V398.994L13.903 402.123H24.184ZM104.996 325.388C102.612 325.388 100.526 324.494 98.7376 322.706C96.9496 320.819 96.0556 318.683 96.0556 316.299C96.0556 313.816 96.9496 311.73 98.7376 310.041C100.526 308.352 102.612 307.508 104.996 307.508C107.38 307.508 109.466 308.352 111.254 310.041C113.042 311.73 113.936 313.816 113.936 316.299C113.936 318.683 113.042 320.819 111.254 322.706C109.466 324.494 107.38 325.388 104.996 325.388ZM98.4396 404.656V332.987C105.095 332.987 108.969 333.384 110.062 334.179C111.154 334.874 111.701 337.457 111.701 341.927V413.596C105.045 413.596 101.171 413.248 100.079 412.553C98.9859 411.758 98.4396 409.126 98.4396 404.656ZM192.975 373.217L193.124 360.105C193.124 356.132 193.025 353.152 192.826 351.165C192.429 346.993 190.095 344.808 185.823 344.609L172.115 348.632L173.456 352.804V413C166.801 413 162.927 412.652 161.834 411.957C160.742 411.162 160.195 408.53 160.195 404.06V332.987C165.957 332.987 169.582 333.136 171.072 333.434C172.562 333.732 173.357 334.626 173.456 336.116L184.482 331.944C190.542 331.944 194.515 332.341 196.402 333.136C198.29 333.931 199.73 334.626 200.723 335.222C201.717 335.818 202.611 337.06 203.405 338.947C204.2 340.735 204.746 342.424 205.044 344.013C205.342 345.503 205.64 347.937 205.938 351.314C206.236 356.181 206.385 363.532 206.385 373.366V413C199.73 413 195.806 412.652 194.614 411.957C193.522 411.162 192.975 408.53 192.975 404.06V373.217ZM278.507 351.463L278.656 347.44C278.656 346.049 278.507 345.304 278.209 345.205C277.911 345.106 277.564 344.907 277.166 344.609C276.769 344.212 276.223 344.112 275.527 344.311C274.931 344.51 274.186 344.559 273.292 344.46L265.246 345.503C263.16 345.801 261.372 345.95 259.882 345.95C258.392 345.95 257.25 345.602 256.455 344.907C255.661 344.212 254.866 341.033 254.071 335.371L271.355 331.944C278.408 331.944 282.828 332.49 284.616 333.583C286.404 334.576 287.696 335.421 288.49 336.116C289.285 336.811 289.831 338.202 290.129 340.288C290.626 342.871 290.874 346.943 290.874 352.506V413C285.113 413 281.487 412.702 279.997 412.106C278.507 411.51 277.713 410.07 277.613 407.785L265.246 414.043C262.465 414.043 260.379 413.993 258.988 413.894C257.697 413.894 256.356 413.497 254.965 412.702C253.674 411.907 252.78 411.113 252.283 410.318C251.886 409.523 251.489 407.835 251.091 405.252C250.595 402.173 250.346 395.865 250.346 386.329V376.048C250.346 364.823 260.131 359.012 279.699 358.615L278.507 355.039V351.463ZM264.352 401.378C264.452 401.378 269.468 399.491 279.401 395.716L277.911 391.395V373.664L279.103 370.237C275.031 370.336 271.455 370.734 268.375 371.429C265.296 372.124 263.756 373.068 263.756 374.26L263.607 393.928C263.607 398.895 263.856 401.378 264.352 401.378ZM349.03 413C342.374 413 338.451 412.652 337.259 411.957C336.166 411.162 335.62 408.53 335.62 404.06V332.987C342.176 332.987 346 333.186 347.093 333.583C348.185 333.98 348.732 335.321 348.732 337.606L358.268 331.944C361.148 331.944 363.781 332.242 366.165 332.838L368.549 332.987C368.549 338.649 368.151 342.026 367.357 343.119C366.562 344.112 364.029 344.609 359.758 344.609L347.54 348.781L349.03 352.953V413ZM407.273 440.863V430.135C411.147 430.135 414.425 428.893 417.107 426.41C419.889 424.026 421.279 421.245 421.279 418.066C421.279 417.271 421.23 416.626 421.13 416.129L404.293 332.987H410.104C413.084 332.987 414.972 333.235 415.766 333.732C416.561 334.129 417.207 334.725 417.703 335.52C418.299 336.315 418.647 337.109 418.746 337.904C418.846 338.599 419.044 339.791 419.342 341.48L427.835 395.12H430.07L439.159 332.987C444.424 332.987 447.752 333.235 449.142 333.732C450.632 334.129 451.377 335.47 451.377 337.755L435.583 415.384C434.093 423.331 432.454 428.595 430.666 431.178C428.183 434.655 425.799 436.89 423.514 437.883C418.349 439.87 412.935 440.863 407.273 440.863ZM546.506 326.431C547.4 332.093 547.896 336.861 547.996 340.735C548.194 344.51 548.294 349.526 548.294 355.784V368.598C548.294 375.949 548.045 381.313 547.549 384.69C547.052 387.968 546.506 391.147 545.91 394.226C545.314 397.206 544.569 399.491 543.675 401.08C542.781 402.669 541.638 404.457 540.248 406.444C538.956 408.331 537.466 409.722 535.778 410.616C531.606 412.901 526.838 414.043 521.474 414.043L493.164 413V305.422L521.474 303.932C526.639 303.932 530.96 304.975 534.437 307.061C538.013 309.048 540.695 311.332 542.483 313.915C544.271 316.498 545.612 320.67 546.506 326.431ZM521.474 400.782C524.752 400.782 527.185 399.64 528.775 397.355C529.669 396.064 530.414 394.822 531.01 393.63C531.705 392.438 532.202 390.65 532.5 388.266C532.897 385.882 533.195 383.846 533.394 382.157C533.692 380.468 533.89 378.035 533.99 374.856C534.089 371.578 534.139 368.995 534.139 367.108V349.973C534.139 343.02 533.94 338.45 533.543 336.265C533.245 333.98 532.897 331.696 532.5 329.411C532.202 327.027 531.705 325.289 531.01 324.196C530.414 323.004 529.669 321.812 528.775 320.62C527.185 318.335 524.752 317.193 521.474 317.193H506.127L507.319 320.918V397.057L505.978 400.782H521.474ZM645.065 413C639.999 413 636.919 412.603 635.827 411.808C634.833 411.013 633.89 408.381 632.996 403.911L627.93 378.73H609.156L603.047 413H599.62C594.852 413 591.822 412.752 590.531 412.255C589.239 411.659 588.594 410.368 588.594 408.381C588.594 406.295 596.143 372.075 611.242 305.72H625.546L649.982 413H645.065ZM617.649 332.838L612.136 361.893L610.944 364.426H626.291C626.191 364.327 625.943 363.88 625.546 363.085C625.148 362.191 624.95 361.694 624.95 361.595L619.139 332.838H617.649ZM719.14 414.043C707.915 414.043 700.266 409.772 696.194 401.229C692.22 392.686 690.234 378.581 690.234 358.913C690.234 339.245 692.369 325.189 696.641 316.746C700.912 308.203 708.412 303.932 719.14 303.932C729.967 303.932 737.467 308.154 741.639 316.597C745.811 325.04 747.897 339.146 747.897 358.913C747.897 378.68 745.91 392.835 741.937 401.378C738.063 409.821 730.464 414.043 719.14 414.043ZM704.389 358.466C704.389 372.671 705.481 383.299 707.667 390.352C709.852 397.305 713.676 400.782 719.14 400.782C724.702 400.782 728.576 397.305 730.762 390.352C732.947 383.299 734.04 372.72 734.04 358.615C734.04 331 729.073 317.193 719.14 317.193C709.306 317.193 704.389 330.951 704.389 358.466Z" fill="white"/>
</svg>
